<?xml version="1.0" standalone="no"?>
<!DOCTYPE svg PUBLIC "-//W3C//DTD SVG 20010904//EN"
 "http://www.w3.org/TR/2001/REC-SVG-20010904/DTD/svg10.dtd">
<svg version="1.0" xmlns="http://www.w3.org/2000/svg"
 width="600.000000pt" height="137.000000pt" viewBox="0 0 600.000000 137.000000"
 preserveAspectRatio="xMidYMid meet">

<g transform="translate(0.000000,137.000000) scale(0.100000,-0.100000)"
fill="#000000" stroke="none">
<path d="M311 1349 c-51 -31 -263 -193 -286 -219 -19 -21 -20 -38 -23 -431 -2
-356 -1 -414 13 -443 14 -30 117 -112 288 -228 l40 -28 287 0 287 0 44 30
c128 85 265 198 281 230 16 32 18 74 18 430 0 377 -1 396 -20 428 -19 31 -232
196 -303 235 -28 15 -64 17 -312 17 -265 0 -282 -1 -314 -21z m589 -67 c68
-35 271 -192 280 -218 6 -15 10 -175 10 -380 0 -291 -3 -360 -15 -383 -12 -24
-181 -161 -198 -161 -3 0 -28 14 -55 30 l-49 31 -255 -3 -255 -3 -36 -28 c-19
-15 -39 -27 -42 -27 -13 0 -176 124 -195 148 -19 23 -20 43 -20 396 0 318 2
375 15 393 16 23 231 187 275 210 19 10 87 13 265 13 211 0 245 -2 275 -18z
m18 -1151 c17 -14 32 -28 32 -33 0 -4 -17 -19 -37 -33 l-38 -25 -244 0 -244 0
-43 28 c-24 15 -44 29 -44 32 0 3 19 18 43 33 l42 28 250 -3 c247 -3 250 -3
283 -27z"/>
<path d="M235 1183 c-72 -54 -135 -109 -142 -123 -18 -35 -18 -707 -1 -745 10
-22 176 -155 193 -155 3 0 24 12 47 28 l42 27 256 0 257 0 36 -27 c19 -16 40
-28 45 -28 17 0 170 118 187 144 24 37 35 693 12 747 -11 28 -46 59 -147 133
l-132 96 -262 0 -262 0 -129 -97z m180 32 c0 -13 -8 -21 -22 -23 -17 -3 -23 2
-23 16 0 10 3 22 7 26 13 13 38 1 38 -19z m453 -3 c3 -18 -1 -22 -22 -22 -19
0 -26 5 -26 18 0 39 43 43 48 4z m-680 -184 c-2 -15 -10 -23 -23 -23 -13 0
-21 8 -23 23 -3 18 1 22 23 22 22 0 26 -4 23 -22z m947 -3 c0 -22 -31 -33 -47
-17 -17 17 -1 44 24 40 15 -2 23 -10 23 -23z m-583 -27 c13 -11 218 -473 218
-492 0 -3 -34 -6 -75 -6 -89 0 -82 -8 -150 168 -27 67 -51 122 -54 122 -3 0
-31 -64 -62 -142 l-55 -143 -77 -3 c-60 -2 -77 0 -77 11 0 21 201 481 214 489
18 12 101 9 118 -4z m295 4 c13 -8 213 -468 213 -490 0 -10 -18 -12 -76 -10
l-77 3 -95 243 c-79 201 -93 245 -81 253 17 11 99 12 116 1z m258 -647 c0 -25
-40 -33 -49 -10 -9 24 2 37 27 33 14 -2 22 -10 22 -23z m-917 -19 c-2 -13 -10
-21 -23 -21 -23 0 -33 34 -14 45 20 13 40 -1 37 -24z"/>
<path d="M1793 1012 c-17 -11 -304 -684 -298 -700 3 -9 30 -12 107 -10 l103 3
22 48 23 48 127 -3 127 -3 26 -45 26 -45 99 -3 c54 -1 102 1 107 6 11 11 -276
682 -299 700 -18 13 -150 17 -170 4z m111 -346 c45 -101 46 -96 -23 -96 -34 0
-61 4 -61 10 0 13 51 140 56 140 2 0 15 -24 28 -54z"/>
<path d="M2305 1008 c-3 -7 -4 -168 -3 -358 l3 -345 90 0 90 0 3 92 c5 151 38
151 151 -1 l71 -96 110 0 c81 0 110 3 110 13 0 6 -37 58 -82 115 l-81 103 36
37 c70 72 96 183 65 283 -16 53 -69 113 -126 141 -43 21 -62 23 -239 26 -155
3 -194 1 -198 -10z m360 -193 c31 -30 33 -77 5 -105 -18 -18 -31 -20 -98 -18
l-77 3 -3 58 c-4 78 5 87 85 87 55 0 67 -4 88 -25z"/>
<path d="M2942 1011 c-9 -5 -12 -30 -10 -87 l3 -79 82 -3 c51 -2 85 -8 92 -16
7 -8 12 -104 13 -267 l3 -254 90 0 90 0 3 254 c1 163 6 259 13 267 7 8 41 14
92 16 l82 3 3 73 c2 46 -2 79 -9 88 -9 11 -60 14 -273 14 -143 0 -267 -4 -274
-9z"/>
<path d="M3582 1008 c-14 -14 -17 -674 -4 -696 6 -9 33 -12 98 -10 l89 3 3
173 c1 94 6 172 11 172 4 0 47 -63 95 -140 48 -77 93 -140 99 -140 7 0 50 62
97 138 47 75 90 136 95 135 6 -2 12 -76 15 -170 l5 -168 90 0 90 0 3 349 c2
273 -1 351 -10 358 -15 9 -123 11 -154 2 -13 -3 -60 -63 -123 -155 -56 -82
-105 -149 -109 -149 -4 0 -45 57 -92 126 -125 186 -123 184 -212 184 -44 0
-79 -5 -86 -12z"/>
<path d="M4553 1013 c-10 -4 -13 -85 -13 -359 l0 -355 93 3 92 3 3 349 c2 273
-1 351 -10 358 -14 8 -145 10 -165 1z"/>
<path d="M4872 1012 c-9 -7 -12 -85 -10 -358 l3 -349 265 0 265 0 0 85 0 85
-167 3 c-93 1 -169 3 -170 5 -1 1 -5 121 -8 267 l-5 265 -80 3 c-44 1 -86 -2
-93 -6z"/>
<path d="M5472 1008 c-14 -14 -17 -674 -4 -696 7 -9 67 -12 268 -10 l259 3 0
85 0 85 -165 5 -165 5 -3 254 c-1 167 -6 259 -13 268 -15 17 -160 18 -177 1z"/>
</g>
</svg>
