<?xml version="1.0" standalone="no"?>
<!DOCTYPE svg PUBLIC "-//W3C//DTD SVG 20010904//EN"
 "http://www.w3.org/TR/2001/REC-SVG-20010904/DTD/svg10.dtd">
<svg version="1.0" xmlns="http://www.w3.org/2000/svg"
 width="640.000000pt" height="640.000000pt" viewBox="0 0 640.000000 640.000000"
 preserveAspectRatio="xMidYMid meet">

<g transform="translate(0.000000,640.000000) scale(0.100000,-0.100000)"
fill="#000000" stroke="none">
<path d="M2140 5660 c-30 -11 -75 -33 -100 -48 -41 -26 -374 -272 -816 -604
-189 -141 -226 -182 -271 -304 l-26 -69 -5 -1411 c-3 -1035 -1 -1425 7 -1465
17 -82 62 -168 117 -226 27 -28 236 -187 464 -354 228 -166 442 -322 475 -347
33 -25 89 -59 125 -76 l65 -31 1030 0 1030 0 65 31 c57 27 264 177 875 634
178 133 213 171 263 277 26 56 27 67 33 288 4 127 8 775 8 1440 1 1313 3 1263
-53 1373 -13 26 -40 66 -60 88 -19 23 -191 156 -382 295 -190 140 -410 301
-487 358 -78 57 -171 118 -207 135 l-65 31 -1015 2 c-990 2 -1016 2 -1070 -17z
m2013 -268 c50 -21 144 -86 472 -327 100 -73 360 -264 423 -309 96 -70 161
-172 182 -286 9 -47 10 -385 4 -1309 -6 -1149 -8 -1250 -24 -1297 -36 -104
-79 -154 -222 -261 -51 -38 -191 -142 -310 -231 -119 -89 -222 -162 -228 -162
-6 0 -63 39 -127 86 -65 47 -138 95 -163 107 l-45 22 -920 0 c-1067 0 -933 15
-1128 -129 l-117 -88 -223 163 c-122 89 -269 197 -326 238 -150 109 -207 188
-231 323 -8 44 -10 410 -5 1302 6 1202 7 1243 27 1303 25 79 81 155 161 216
222 170 800 595 837 616 87 49 95 50 1030 48 l875 -2 58 -23z m-123 -4102 c30
-6 76 -21 104 -34 51 -23 249 -163 254 -179 5 -14 -178 -147 -248 -181 l-65
-31 -870 0 c-856 0 -871 0 -918 21 -50 21 -277 180 -277 194 0 9 194 152 237
174 85 43 110 44 939 45 493 1 811 -3 844 -9z"/>
<path d="M2285 5356 c-70 -22 -101 -43 -474 -319 -547 -405 -525 -386 -573
-504 l-23 -58 -3 -1249 c-2 -1126 -1 -1254 14 -1305 33 -117 76 -164 279 -312
83 -59 204 -148 270 -196 66 -49 135 -99 153 -111 l32 -24 109 81 c123 92 170
116 261 130 84 14 1641 15 1723 1 83 -13 149 -46 273 -137 l109 -80 280 208
c154 114 305 230 335 257 60 54 103 129 120 209 7 32 9 472 8 1298 l-3 1250
-31 65 c-17 36 -51 84 -74 107 -24 23 -152 121 -284 218 -133 96 -299 218
-371 271 -202 149 -258 184 -316 199 -75 20 -1751 21 -1814 1z m114 -150 c86
-45 54 -186 -43 -186 -70 0 -106 35 -106 103 0 76 78 119 149 83z m1652 -15
c23 -24 29 -38 29 -73 -1 -65 -36 -98 -105 -98 -49 0 -95 44 -95 92 1 95 106
144 171 79z m-2488 -662 c63 -32 77 -111 28 -160 -29 -29 -42 -33 -91 -30 -39
3 -80 54 -80 99 0 78 75 126 143 91z m3454 -24 c28 -31 30 -90 7 -124 -9 -13
-32 -29 -50 -37 -29 -12 -39 -12 -68 0 -83 35 -90 140 -11 185 32 19 97 6 122
-24z m-2082 -167 c14 -13 44 -66 66 -118 171 -395 492 -1141 585 -1359 63
-146 114 -274 114 -285 -1 -50 -3 -51 -259 -54 -271 -3 -286 0 -320 66 -10 20
-105 254 -211 520 -152 383 -195 482 -208 480 -12 -2 -76 -152 -213 -496 -107
-271 -205 -505 -216 -520 -36 -49 -52 -52 -290 -52 -229 0 -267 6 -276 40 -6
22 -34 -46 387 935 267 622 354 816 377 838 l29 27 205 0 c197 0 205 -1 230
-22z m1065 5 c23 -13 46 -57 123 -237 154 -357 426 -991 546 -1269 61 -142
111 -262 111 -267 0 -6 -9 -19 -20 -30 -19 -19 -33 -20 -251 -20 -258 0 -285
6 -312 63 -13 27 -237 592 -463 1167 -29 74 -89 227 -133 339 -45 112 -81 210
-81 217 0 7 12 22 26 33 25 20 40 21 226 21 169 0 204 -3 228 -17z m889 -2247
c77 -40 62 -162 -22 -184 -43 -11 -72 -4 -101 24 -29 30 -37 73 -20 112 24 57
85 78 143 48z m-3320 -70 c57 -30 68 -110 22 -157 -63 -63 -171 -20 -171 68 0
82 75 127 149 89z"/>
</g>
</svg>
