<?xml version="1.0" standalone="no"?>
<!DOCTYPE svg PUBLIC "-//W3C//DTD SVG 20010904//EN"
 "http://www.w3.org/TR/2001/REC-SVG-20010904/DTD/svg10.dtd">
<svg version="1.0" xmlns="http://www.w3.org/2000/svg"
 width="320.000000pt" height="320.000000pt" viewBox="0 0 320.000000 320.000000"
 preserveAspectRatio="xMidYMid meet">

<g transform="translate(0.000000,320.000000) scale(0.100000,-0.100000)"
fill="#000000" stroke="none">
<path d="M1549 3113 c-42 -60 -69 -150 -69 -225 0 -58 -1 -60 -22 -53 -47 14
-117 17 -150 6 -26 -9 -39 -21 -51 -49 -24 -57 -27 -75 -19 -106 11 -40 28
-43 40 -6 10 26 16 30 48 30 64 0 117 -22 166 -70 43 -42 48 -51 48 -91 -1
-54 -15 -81 -60 -114 -50 -37 -113 -63 -205 -86 -91 -22 -124 -23 -178 -8 -78
21 -131 104 -92 143 23 22 37 17 54 -22 8 -18 18 -32 22 -32 4 0 17 20 29 45
19 38 20 50 10 79 -15 46 -59 66 -147 66 -65 0 -71 2 -83 26 -32 58 -138 114
-218 114 -20 0 -56 -7 -79 -16 -52 -20 -49 -25 48 -90 83 -56 154 -123 198
-187 47 -69 107 -201 127 -280 37 -150 68 -164 387 -179 121 -5 225 -7 232 -4
11 4 14 108 14 580 0 335 -4 576 -9 576 -5 0 -23 -21 -41 -47z"/>
<path d="M1730 2745 l0 -75 104 0 103 0 7 -61 c4 -34 16 -89 26 -123 11 -33
20 -64 20 -68 0 -3 -57 -41 -126 -84 -69 -42 -128 -82 -130 -89 -3 -6 -4 -48
-2 -93 l3 -81 168 106 168 105 74 -70 c106 -101 264 -171 388 -172 l37 0 0 74
0 75 -47 6 c-230 30 -400 199 -426 422 l-6 53 237 2 237 3 3 73 3 72 -421 0
-420 0 0 -75z"/>
<path d="M1020 1994 c19 -50 31 -64 69 -83 46 -24 262 -51 407 -51 l100 0 0
54 0 53 -165 12 c-91 6 -215 18 -276 26 -150 20 -147 20 -135 -11z"/>
<path d="M1730 1905 l0 -75 420 0 420 0 0 75 0 75 -420 0 -420 0 0 -75z"/>
<path d="M1732 1644 l3 -75 264 1 c235 1 263 -1 257 -15 -3 -9 -51 -74 -107
-145 l-101 -130 -159 0 -160 0 3 -77 c2 -43 6 -77 11 -75 4 1 192 2 417 2
l410 0 0 75 0 75 -160 0 c-88 0 -160 2 -160 5 0 3 72 99 160 213 88 114 160
210 160 215 0 4 -189 7 -420 7 l-421 0 3 -76z"/>
<path d="M998 1668 c-23 -20 -124 -949 -109 -1006 14 -51 33 -66 71 -58 26 5
30 3 30 -17 0 -71 55 -163 91 -152 16 5 19 1 19 -22 0 -15 10 -44 23 -65 29
-48 177 -240 196 -255 31 -24 56 -15 71 25 l13 37 11 -40 c9 -32 16 -40 34
-39 12 0 51 1 87 2 l65 2 -2 398 -3 397 -40 0 c-38 0 -40 -2 -45 -35 -3 -20
-11 -35 -17 -34 -7 1 -28 2 -45 3 -56 2 -62 12 -48 69 15 63 27 74 120 109
l75 29 3 72 4 71 -48 31 c-26 16 -56 30 -65 30 -10 0 -21 5 -25 12 -5 8 -14 3
-28 -14 -12 -14 -35 -33 -53 -42 -17 -9 -47 -34 -65 -57 -96 -120 -118 -136
-118 -88 0 11 -7 52 -16 91 -12 51 -25 80 -49 107 -50 56 -56 73 -66 204 -6
67 -13 150 -15 185 -6 65 -20 78 -56 50z"/>
<path d="M1533 1638 l-22 -22 -123 17 c-68 9 -147 17 -176 17 -51 0 -53 -1
-68 -36 -17 -42 -14 -50 14 -35 25 13 72 14 92 1 12 -8 11 -13 -8 -33 -12 -13
-22 -26 -22 -29 0 -3 38 -11 85 -18 l84 -12 -20 -40 c-11 -22 -18 -42 -15 -45
3 -3 33 15 68 41 57 43 64 45 75 29 7 -9 13 -25 13 -36 0 -10 5 -15 10 -12 6
3 10 31 10 61 0 30 7 77 16 104 20 61 15 77 -13 48z"/>
<path d="M2072 1049 c-123 -24 -231 -108 -289 -227 -34 -67 -38 -86 -41 -163
-5 -110 14 -177 71 -261 46 -67 138 -138 204 -159 21 -6 77 -13 126 -16 l88
-5 -1 232 c-1 127 -4 238 -7 246 -4 10 -24 14 -74 14 l-69 0 0 -159 c0 -88 -4
-162 -8 -165 -13 -8 -64 22 -105 62 -54 53 -79 111 -80 185 -1 188 168 312
352 258 30 -8 61 -30 97 -65 89 -90 106 -196 48 -314 -14 -29 -39 -62 -55 -74
-28 -21 -29 -25 -29 -105 0 -46 4 -83 9 -83 19 0 132 83 161 118 42 51 76 125
90 200 43 216 -115 439 -340 482 -60 11 -87 11 -148 -1z"/>
</g>
</svg>
