<?xml version="1.0" standalone="no"?>
<!DOCTYPE svg PUBLIC "-//W3C//DTD SVG 20010904//EN"
 "http://www.w3.org/TR/2001/REC-SVG-20010904/DTD/svg10.dtd">
<svg version="1.0" xmlns="http://www.w3.org/2000/svg"
 width="337.000000pt" height="337.000000pt" viewBox="0 0 337.000000 337.000000"
 preserveAspectRatio="xMidYMid meet">

<g transform="translate(0.000000,337.000000) scale(0.100000,-0.100000)"
fill="#000000" stroke="none">
<path d="M0 1685 l0 -1685 1685 0 1685 0 0 1685 0 1685 -1685 0 -1685 0 0
-1685z m1403 1172 c70 -32 137 -98 163 -160 13 -33 24 -46 34 -44 108 31 106
31 168 11 l59 -20 24 50 c13 27 43 69 68 93 181 179 465 107 551 -140 16 -44
23 -53 47 -55 51 -7 48 -41 -4 -42 -18 0 -22 -8 -28 -52 -18 -142 -112 -252
-245 -292 -95 -28 -181 -14 -272 43 -94 60 -167 206 -154 310 l6 49 -47 16
c-55 19 -85 19 -133 2 l-35 -13 -2 -69 c-6 -307 -344 -459 -566 -255 -51 47
-95 136 -104 211 -7 62 -22 65 -92 13 -53 -40 -58 -59 -25 -108 8 -11 14 -26
14 -35 -1 -19 -47 -53 -55 -40 -3 5 3 15 15 22 23 14 27 33 6 25 -7 -3 -18 -1
-24 5 -7 7 -16 0 -28 -21 -10 -17 -22 -31 -26 -31 -13 0 -9 12 9 32 15 17 14
18 -15 18 -18 0 -32 -4 -32 -10 0 -5 -5 -10 -12 -10 -6 0 -1 11 12 25 13 14
32 25 42 25 10 0 18 5 18 11 0 6 -9 8 -20 4 -13 -4 -20 -2 -20 7 0 7 -8 1 -18
-14 -9 -16 -20 -28 -25 -28 -4 0 -6 4 -3 9 4 5 1 22 -4 36 -10 26 -12 27 -29
11 -10 -9 -24 -14 -32 -11 -8 3 -27 -6 -44 -20 -29 -25 -29 -26 -5 -19 14 4
27 10 30 15 5 7 16 7 49 0 2 -1 -2 -8 -9 -16 -9 -11 -16 -12 -25 -5 -9 8 -15
8 -20 0 -9 -15 -45 -12 -51 5 -4 8 -10 13 -15 10 -4 -3 -6 -12 -2 -20 6 -18
-3 -19 -21 -2 -12 10 -12 15 1 30 15 15 15 17 -1 17 -9 0 -14 5 -11 10 4 6 8
25 10 43 12 114 46 310 57 322 5 5 8 2 8 -8 0 -9 5 -17 10 -17 15 0 60 50 60
66 0 17 165 20 222 4 73 -21 131 -106 92 -135 -11 -8 -14 -14 -6 -15 17 0 15
-49 -3 -83 -13 -25 -13 -28 1 -25 8 2 25 33 39 72 26 73 77 137 145 179 85 53
207 58 303 14z m1522 -7 c-9 -49 -36 -124 -49 -132 -6 -4 -32 -8 -58 -8 -26 0
-49 -4 -52 -9 -7 -11 -32 -145 -41 -220 -3 -30 -9 -60 -13 -65 -4 -6 -7 -13
-7 -16 -1 -3 -5 -30 -9 -60 -10 -70 -27 -130 -37 -130 -4 0 -3 15 2 32 5 18 9
41 9 52 0 15 -3 16 -15 6 -13 -11 -14 -10 -9 5 6 15 3 17 -14 13 -12 -4 -20
-3 -17 2 6 10 -24 35 -32 26 -4 -4 -1 -11 7 -16 11 -7 8 -11 -13 -19 -50 -19
-55 -16 -45 37 5 26 10 58 12 72 2 14 7 47 10 74 4 27 12 77 19 110 20 102 21
101 -48 104 -33 2 -62 7 -66 13 -5 9 12 112 25 145 4 11 44 14 226 14 l220 0
-5 -30z m-2455 -490 c0 -5 -4 -10 -10 -10 -5 0 -10 5 -10 10 0 6 5 10 10 10 6
0 10 -4 10 -10z m107 -16 c-2 -2 -12 -1 -22 3 -18 6 -18 7 1 13 17 7 33 -5 21
-16z m-104 -24 c3 -11 4 -20 2 -20 -2 0 -12 -3 -22 -6 -14 -6 -16 -4 -6 6 6 7
9 19 6 26 -3 8 -1 14 5 14 5 0 12 -9 15 -20z m117 -44 c-8 -8 -9 -4 -6 14 2
14 6 32 7 40 1 8 4 2 6 -14 3 -16 0 -33 -7 -40z m105 53 c11 -17 -1 -21 -15
-4 -8 9 -8 15 -2 15 6 0 14 -5 17 -11z m-175 -3 c0 -3 -4 -8 -10 -11 -5 -3
-10 -1 -10 4 0 6 5 11 10 11 6 0 10 -2 10 -4z m317 -2 c-3 -3 -12 -4 -19 -1
-8 3 -5 6 6 6 11 1 17 -2 13 -5z m-136 -37 c-1 -12 -15 -9 -19 4 -3 6 1 10 8
8 6 -3 11 -8 11 -12z m1871 -19 c-7 -7 -12 -8 -12 -2 0 14 12 26 19 19 2 -3
-1 -11 -7 -17z m-42 -9 c0 -11 -4 -18 -10 -14 -5 3 -7 12 -3 20 7 21 13 19 13
-6z m105 11 c-3 -5 -10 -10 -16 -10 -5 0 -9 5 -9 10 0 6 7 10 16 10 8 0 12 -4
9 -10z m-1770 -10 c-3 -5 -10 -10 -16 -10 -5 0 -9 5 -9 10 0 6 7 10 16 10 8 0
12 -4 9 -10z m35 -44 c-19 -51 -12 -100 18 -128 46 -43 92 -52 221 -42 64 5
172 9 241 8 113 0 130 -2 180 -26 30 -14 74 -44 96 -67 l42 -42 48 48 c67 66
126 84 276 84 62 0 124 -2 138 -5 105 -23 235 -11 293 28 42 28 52 80 23 113
-11 13 -17 25 -15 27 9 9 52 -19 71 -45 37 -50 17 -166 -43 -249 -34 -47 -26
-56 46 -47 25 2 45 1 45 -4 0 -13 -70 -57 -102 -64 l-28 -7 25 -30 c14 -16 25
-38 25 -49 0 -30 37 -23 71 14 l30 32 -7 -30 c-8 -37 -31 -74 -50 -82 -10 -3
-14 -21 -14 -59 0 -30 -3 -54 -7 -54 -5 0 -8 20 -8 45 0 36 -3 45 -15 42 -9
-1 -14 -11 -12 -22 2 -11 2 -47 2 -80 -1 -33 -2 -70 -2 -82 0 -38 -16 -26 -23
17 -8 46 -25 83 -56 120 l-20 25 17 -35 c16 -32 16 -34 1 -21 -10 7 -17 10
-17 5 1 -12 39 -81 40 -71 0 5 -5 17 -10 28 -7 12 -7 19 -1 19 14 0 24 -64 17
-105 -8 -40 -26 -47 -26 -10 0 58 -111 269 -137 260 -7 -2 -10 2 -7 9 3 7 -6
20 -19 29 -24 15 -25 15 -19 -5 4 -17 2 -20 -12 -15 -14 6 -16 2 -12 -21 3
-15 8 -37 11 -48 4 -12 2 -25 -5 -29 -18 -11 -39 26 -33 58 3 15 1 27 -4 27
-12 0 -15 -18 -17 -105 -1 -54 5 -84 24 -130 23 -54 25 -73 25 -198 0 -75 3
-137 6 -137 3 0 12 -26 19 -57 14 -62 30 -91 30 -55 0 29 20 29 21 0 1 -14 5
-7 10 16 5 22 16 47 24 56 8 9 15 22 15 28 0 7 5 12 10 12 6 0 4 -13 -5 -29
-8 -17 -11 -32 -7 -35 12 -7 79 198 85 257 5 59 17 74 17 21 0 -40 -33 -166
-69 -265 -20 -57 -23 -153 -6 -207 12 -35 -10 -27 -65 26 -48 46 -50 47 -50
23 -2 -94 -31 -194 -79 -268 -53 -82 -91 -112 -56 -43 9 17 22 56 29 87 11 43
15 50 15 28 3 -56 21 -1 23 67 2 57 -2 91 -18 167 -5 23 -4 24 6 8 6 -10 14
-42 17 -70 8 -76 22 -81 16 -6 -4 47 -13 77 -34 112 -16 27 -32 59 -35 73 -6
24 -24 34 -24 13 0 -34 -80 110 -103 186 -19 62 -29 127 -18 120 5 -2 11 -25
14 -50 10 -70 36 -139 74 -197 27 -42 33 -47 28 -25 -4 19 -2 26 5 22 5 -3 10
-10 10 -15 0 -5 20 -40 45 -77 25 -37 45 -59 45 -50 0 8 -4 18 -9 21 -9 6 -22
46 -15 46 2 0 15 -20 30 -45 14 -25 28 -45 31 -45 13 0 -13 72 -47 130 -97
167 -131 247 -133 315 -1 25 -6 45 -11 45 -5 0 -6 -44 -4 -97 5 -95 5 -97 -9
-58 -32 86 -14 248 38 342 l21 38 -26 -30 c-14 -16 -26 -35 -26 -41 0 -6 -13
-25 -28 -42 -49 -55 -74 -224 -46 -315 4 -16 3 -19 -5 -12 -30 28 -34 211 -7
290 10 28 24 60 32 72 17 27 18 39 2 21 -21 -21 -55 -90 -69 -135 -6 -23 -16
-40 -20 -37 -13 8 -28 -63 -24 -114 3 -42 3 -44 -6 -17 -13 39 -3 154 17 205
19 46 14 62 -8 28 -26 -41 -47 -112 -52 -173 -5 -87 19 -146 86 -204 102 -89
174 -166 196 -212 29 -61 50 -161 34 -167 -7 -2 -12 -8 -12 -13 0 -6 4 -8 9
-5 5 3 11 -3 14 -14 3 -11 1 -20 -4 -20 -5 0 -9 6 -10 13 0 6 -7 -13 -15 -43
-8 -30 -23 -68 -34 -85 -45 -69 -46 -76 -22 -95 34 -28 26 -33 -15 -11 -47 24
-67 46 -84 93 -13 38 -29 51 -29 23 0 -28 41 -123 55 -129 16 -6 21 -26 6 -26
-10 0 -50 40 -75 75 -14 19 -14 18 -12 -18 1 -26 13 -54 38 -87 23 -30 30 -46
20 -42 -15 5 -15 4 -3 -11 7 -9 17 -14 22 -11 10 6 12 -56 3 -80 -3 -9 -10
-16 -16 -16 -5 0 -6 4 -3 10 11 17 -7 81 -30 108 -12 15 -31 44 -42 65 -24 43
-38 35 -46 -25 -4 -33 9 -67 33 -88 12 -11 40 -60 40 -72 0 -6 -13 0 -28 15
-35 34 -44 34 -32 1 17 -43 11 -50 -12 -17 -13 18 -29 33 -35 33 -7 0 -13 4
-13 8 0 17 -73 93 -79 83 -4 -6 -12 -1 -20 12 -13 20 -13 21 2 8 18 -14 22 -5
9 17 -5 7 -16 10 -26 6 -15 -6 -14 -11 9 -50 14 -24 21 -44 15 -44 -6 0 -15
12 -21 28 -6 15 -13 22 -16 15 -8 -21 21 -66 57 -91 19 -13 45 -32 58 -43 13
-11 27 -17 32 -14 6 4 10 -5 10 -19 0 -14 -2 -26 -4 -26 -2 0 -21 17 -43 38
-22 20 -58 53 -80 72 -22 19 -43 42 -47 50 -5 12 -7 12 -12 2 -10 -21 -55 -72
-64 -72 -5 0 -5 13 -1 28 5 15 7 39 6 53 -1 13 -3 32 -4 41 0 10 -20 34 -42
55 -55 50 -90 107 -87 141 1 15 -2 34 -7 41 -5 9 -4 12 2 8 16 -10 21 47 7 61
-9 8 -15 8 -19 2 -11 -17 -7 -128 5 -150 6 -11 8 -20 5 -20 -3 0 1 -10 9 -22
26 -37 18 -43 -14 -12 -33 33 -38 46 -12 37 13 -5 15 -4 6 8 -19 26 -50 145
-60 234 -3 33 -8 62 -9 66 -2 3 -6 70 -10 150 -13 335 -17 378 -36 454 -10 44
-24 84 -31 90 -11 10 -9 -8 14 -100 11 -45 24 -553 14 -544 -9 8 -14 65 -17
164 -1 63 -3 72 -9 45 -9 -44 -9 -45 -14 130 -5 153 -21 299 -37 314 -5 6 -7
-18 -4 -60 10 -127 12 -273 5 -269 -4 2 -7 19 -8 36 0 18 -6 35 -12 39 -6 3
-10 15 -9 26 4 37 -1 107 -7 102 -3 -4 -8 -26 -10 -50 -3 -23 -7 -49 -10 -57
-6 -19 -6 -330 1 -361 3 -14 7 -36 10 -50 2 -14 13 -51 24 -83 18 -51 18 -60
6 -84 -20 -37 -19 -123 1 -151 14 -20 14 -22 -1 -22 -23 0 -54 77 -57 138 l-2
50 -17 -28 c-18 -29 -37 -45 -45 -37 -3 2 1 11 8 19 39 42 44 120 14 212 -15
45 -15 47 1 35 15 -13 16 -11 9 11 -4 14 -15 53 -24 88 -9 34 -21 62 -28 62
-16 0 -21 25 -17 88 4 68 -11 59 -25 -15 -11 -56 -10 -91 3 -163 l7 -35 -40
41 c-33 34 -41 50 -47 96 -10 77 -1 133 34 223 17 43 29 81 26 83 -3 4 -48
-88 -47 -98 0 -3 -4 -12 -9 -21 -4 -9 -11 -31 -15 -50 -3 -19 -7 -41 -9 -49
-2 -8 -4 -24 -5 -35 -1 -19 -1 -19 -14 -2 -13 17 -17 17 -38 4 -13 -8 -34 -18
-48 -22 -24 -6 -24 -5 6 22 18 15 37 38 43 50 14 28 14 79 -1 106 -22 41 -5
118 35 159 28 29 70 89 65 94 -3 2 -27 -11 -53 -31 -26 -20 -45 -31 -43 -23 5
13 40 39 98 71 18 10 30 20 28 23 -3 3 -33 -11 -67 -31 -63 -37 -92 -70 -68
-78 9 -3 9 -7 1 -18 -6 -8 -19 -36 -29 -62 -22 -58 -32 -47 -38 40 -3 38 1 75
10 99 9 22 17 57 19 78 2 22 9 43 16 47 19 12 8 11 -37 -6 -74 -26 -75 -17 -4
54 38 38 69 73 69 78 0 5 -13 8 -30 5 -18 -3 -30 0 -30 7 0 6 6 11 14 11 8 0
28 11 43 24 25 22 26 26 12 38 -38 32 -60 90 -64 173 -3 53 5 76 38 112 25 28
31 24 17 -11z m1681 1 c-16 -16 -25 -1 -10 16 8 8 16 11 18 5 2 -5 -2 -15 -8
-21z m-2001 3 c0 -5 -2 -10 -4 -10 -3 0 -8 5 -11 10 -3 6 -1 10 4 10 6 0 11
-4 11 -10z m245 0 c3 -5 -1 -10 -9 -10 -9 0 -16 5 -16 10 0 6 4 10 9 10 6 0
13 -4 16 -10z m1710 -10 c-3 -5 -10 -10 -16 -10 -5 0 -9 5 -9 10 0 6 7 10 16
10 8 0 12 -4 9 -10z m-320 -652 c9 -31 19 -56 43 -105 26 -53 36 -120 28 -178
-10 -64 -21 -55 -22 18 0 35 -11 94 -25 137 -13 41 -24 77 -24 80 -1 3 -5 13
-8 23 -15 37 -16 47 -7 47 5 0 11 -10 15 -22z m-208 -53 c-6 -19 -14 -35 -18
-35 -5 0 -4 12 2 26 20 54 32 61 16 9z m513 -5 c0 -5 -5 -10 -11 -10 -5 0 -7
5 -4 10 3 6 8 10 11 10 2 0 4 -4 4 -10z m-302 -80 c0 -8 -6 1 -13 20 -7 19
-13 42 -13 50 0 8 6 -1 13 -20 7 -19 13 -42 13 -50z m-232 -18 c-11 -10 -14 3
-8 33 l7 30 3 -28 c2 -16 1 -31 -2 -35z m-85 5 c-10 -9 -11 -8 -5 6 3 10 9 15
12 12 3 -3 0 -11 -7 -18z m9 -32 c0 -8 -2 -15 -4 -15 -2 0 -6 7 -10 15 -3 8
-1 15 4 15 6 0 10 -7 10 -15z m482 -70 c-6 -34 -12 -32 -12 6 0 16 4 28 9 25
4 -3 6 -17 3 -31z m-1165 -170 c-1 -96 -5 -175 -9 -175 -12 0 -14 176 -3 255
2 17 4 45 4 63 1 17 3 32 6 32 2 0 3 -79 2 -175z m28 -11 c13 -219 18 -266 35
-333 5 -19 7 -37 5 -39 -8 -8 -27 51 -31 93 -2 22 -6 51 -9 65 -8 35 -18 326
-11 319 3 -3 8 -50 11 -105z m1022 -76 c-3 -8 -6 -5 -6 6 -1 11 2 17 5 13 3
-3 4 -12 1 -19z m-922 -284 c2 -11 7 -30 10 -44 4 -17 1 -15 -9 9 -9 18 -16
40 -16 49 0 19 9 11 15 -14z m-71 -18 c26 -48 47 -55 41 -13 l-5 32 11 -34 c6
-19 18 -35 30 -38 10 -3 22 -17 26 -32 3 -14 13 -36 21 -48 11 -18 12 -29 3
-54 -16 -47 -14 -70 13 -123 28 -56 13 -56 -27 0 -17 25 -30 58 -34 91 l-6 52
-21 -27 c-28 -36 -43 -48 -98 -77 -71 -37 -84 -31 -32 17 25 23 52 55 60 71
14 26 14 32 0 62 -28 59 -33 155 -9 155 5 0 17 -15 27 -34z"/>
<path d="M783 2815 c0 -17 5 -25 18 -25 27 0 34 19 13 35 -27 20 -31 18 -31
-10z"/>
<path d="M677 2693 c-3 -5 -8 -29 -12 -55 l-7 -48 36 0 c55 0 94 60 64 98 -11
13 -74 17 -81 5z"/>
<path d="M523 2453 c-21 -8 -15 -22 7 -16 11 3 20 9 20 14 0 10 -8 10 -27 2z"/>
<path d="M2660 2359 c0 -5 5 -7 10 -4 6 3 10 8 10 11 0 2 -4 4 -10 4 -5 0 -10
-5 -10 -11z"/>
<path d="M895 2056 c39 -59 125 -71 370 -54 l100 7 -105 -14 c-140 -18 -238
-18 -290 0 -57 20 -60 14 -7 -15 23 -13 45 -28 49 -34 4 -6 29 -19 55 -28 26
-10 35 -15 18 -12 -62 12 -106 14 -99 3 3 -6 13 -8 21 -5 8 3 11 1 8 -4 -9
-14 81 -67 154 -90 74 -23 186 -25 246 -4 31 10 33 12 10 9 -45 -8 -183 -15
-160 -9 125 33 218 54 239 54 14 0 26 5 26 10 0 6 -10 8 -22 6 -13 -3 -48 -7
-80 -10 -31 -3 -64 -9 -74 -13 -12 -4 -15 -3 -10 5 4 7 17 12 29 12 12 0 29 5
37 11 11 8 5 9 -25 5 -28 -4 -34 -3 -20 4 11 5 46 9 78 9 40 1 56 4 51 12 -4
8 -29 10 -73 6 -42 -4 -59 -3 -46 3 17 7 14 9 -15 10 -30 0 -32 2 -17 11 11 6
54 9 102 7 95 -3 99 6 10 23 -76 14 -86 24 -17 16 35 -4 51 -3 46 4 -3 6 8 3
25 -5 41 -22 40 -6 -1 19 -30 18 -47 20 -168 16 -74 -2 -188 -4 -252 -5 -116
-1 -117 -1 -162 31 -42 30 -45 30 -31 9z m563 -53 c-10 -2 -26 -2 -35 0 -10 3
-2 5 17 5 19 0 27 -2 18 -5z m-403 -121 c-3 -3 -11 0 -18 7 -9 10 -8 11 6 5
10 -3 15 -9 12 -12z"/>
<path d="M2489 2054 c-8 -10 -34 -26 -59 -37 -53 -24 -154 -26 -324 -7 -60 7
-126 9 -147 6 -45 -7 -109 -36 -109 -48 0 -5 5 -6 11 -3 17 11 140 15 134 5
-4 -6 -23 -10 -43 -10 -20 -1 -50 -7 -67 -14 -28 -12 -26 -13 35 -9 36 2 85 0
110 -5 l45 -10 -45 -2 c-42 -2 -43 -3 -15 -10 22 -6 10 -8 -50 -10 l-80 -3 74
-8 c41 -5 77 -12 80 -15 3 -4 -14 -4 -39 -1 -47 6 -36 -2 30 -22 31 -9 31 -10
5 -6 -16 3 -66 7 -110 9 -44 3 -66 2 -50 0 17 -3 71 -16 120 -29 50 -13 104
-26 120 -29 17 -2 -13 -3 -65 -1 -72 2 -89 0 -70 -8 46 -19 189 -12 250 11 70
27 153 79 145 91 -3 5 1 12 7 15 7 3 0 4 -16 1 -76 -15 -91 -15 -47 -1 24 8
47 19 50 24 3 5 28 21 54 37 56 32 57 42 1 19 -48 -21 -180 -21 -309 0 -54 9
-68 13 -35 11 180 -15 288 -17 328 -6 43 12 112 64 101 75 -3 4 -12 -1 -20
-10z m-516 -61 c-7 -2 -19 -2 -25 0 -7 3 -2 5 12 5 14 0 19 -2 13 -5z m387
-113 c-8 -5 -19 -10 -25 -10 -5 0 -3 5 5 10 8 5 20 10 25 10 6 0 3 -5 -5 -10z"/>
<path d="M1780 1951 c-12 -17 -18 -31 -13 -31 11 1 46 50 40 56 -3 3 -15 -9
-27 -25z"/>
<path d="M934 1772 c-11 -10 -29 -31 -38 -47 -18 -29 -18 -30 0 -10 11 11 32
33 49 48 32 29 23 37 -11 9z"/>
<path d="M962 1727 c-30 -32 -51 -61 -48 -64 9 -9 86 57 101 88 25 48 2 38
-53 -24z"/>
<path d="M2340 1784 c0 -6 9 -23 20 -37 l20 -25 -21 5 c-32 9 -20 -17 21 -44
34 -24 96 -30 135 -13 17 7 15 9 -11 9 -36 1 -96 39 -136 84 -16 18 -28 27
-28 21z"/>
<path d="M1424 1772 c4 -6 32 -19 64 -29 35 -11 69 -31 91 -53 19 -19 32 -27
28 -17 -15 38 5 13 33 -43 17 -33 32 -60 35 -60 6 0 -2 33 -19 74 -15 35 -15
37 0 25 9 -7 20 -24 25 -37 10 -26 27 -25 43 3 15 26 36 48 36 38 0 -5 -4 -13
-9 -18 -13 -14 -31 -85 -22 -85 5 0 16 20 25 44 9 25 24 50 33 58 14 11 16 11
8 -2 -5 -8 10 2 32 22 23 20 61 42 85 49 24 6 49 13 56 15 25 7 11 24 -21 24
-87 0 -182 -50 -222 -116 l-22 -36 -29 43 c-37 55 -117 98 -198 106 -42 4 -57
3 -52 -5z"/>
<path d="M2310 1765 c0 -18 19 -40 26 -32 4 4 0 15 -9 24 -9 10 -17 13 -17 8z"/>
<path d="M2279 1733 c12 -23 50 -57 81 -73 31 -16 10 -26 -22 -10 -22 11 -22
10 -4 -4 22 -18 126 -22 126 -6 0 6 -9 10 -20 10 -30 0 -93 34 -128 70 -34 34
-47 39 -33 13z"/>
<path d="M1940 1730 c-11 -7 -3 -10 30 -9 34 0 40 2 25 9 -27 12 -37 12 -55 0z"/>
<path d="M1106 1715 c-9 -26 -27 -59 -89 -169 -54 -93 -67 -127 -41 -105 8 6
14 15 14 20 0 5 19 37 43 72 47 67 92 168 84 189 -3 9 -7 6 -11 -7z"/>
<path d="M1920 1700 c-13 -9 -13 -10 0 -9 8 1 26 5 40 9 l25 8 -25 1 c-14 0
-32 -4 -40 -9z"/>
<path d="M1186 1682 c5 -5 30 -17 56 -26 26 -10 57 -30 69 -44 11 -15 26 -27
32 -27 7 0 22 -20 34 -45 17 -32 22 -38 20 -20 -2 14 -9 36 -16 50 -12 24 -11
24 13 -3 18 -20 26 -23 26 -13 0 25 -71 97 -115 117 -40 18 -138 27 -119 11z"/>
<path d="M1878 1664 c-16 -8 -28 -17 -28 -20 0 -3 5 -2 11 2 7 4 30 13 53 20
31 9 35 13 16 13 -14 0 -37 -7 -52 -15z"/>
<path d="M1424 1632 c27 -75 92 -189 103 -179 2 3 -10 28 -26 56 -35 59 -71
135 -71 150 0 6 -4 11 -10 11 -5 0 -3 -17 4 -38z"/>
<path d="M1480 1631 c5 -11 7 -26 4 -34 -3 -9 11 -46 31 -83 24 -44 33 -69 25
-74 -7 -4 -5 -14 8 -31 30 -38 72 -135 72 -165 l0 -28 20 22 c23 25 27 101 9
197 -12 64 -59 177 -66 158 -2 -7 2 -27 10 -45 24 -52 39 -107 34 -121 -3 -7
-6 -5 -6 5 -1 23 -43 108 -53 108 -5 0 -1 -11 8 -25 9 -13 14 -30 12 -37 -3
-7 -18 15 -35 47 -43 86 -67 125 -76 125 -4 0 -3 -9 3 -19z m79 -151 c67 -130
78 -163 30 -85 -17 28 -28 42 -25 33 3 -10 0 -18 -5 -18 -7 0 -9 9 -6 22 6 20
-17 85 -33 98 -8 6 -31 70 -25 70 2 0 31 -54 64 -120z m86 -191 l4 -34 -13 35
c-18 43 -19 57 -5 43 6 -6 12 -26 14 -44z"/>
<path d="M1868 1633 c-34 -22 -74 -95 -82 -153 l-7 -45 34 65 c19 36 51 84 71
108 39 43 31 54 -16 25z"/>
<path d="M1128 1537 c-24 -56 -23 -66 3 -32 21 26 34 75 21 75 -4 0 -15 -19
-24 -43z"/>
<path d="M1477 1443 c3 -10 10 -23 15 -29 10 -14 19 -54 12 -54 -2 0 -9 11
-14 25 -5 14 -14 25 -19 25 -5 0 0 -18 11 -41 10 -22 17 -43 14 -46 -3 -3 -10
6 -15 21 -6 14 -17 26 -26 26 -8 0 -15 5 -15 12 0 6 -2 9 -5 6 -3 -2 2 -40 11
-84 9 -47 15 -143 16 -239 2 -147 3 -156 13 -105 25 119 16 276 -20 385 -6 19
-6 19 8 2 22 -27 41 -147 40 -257 0 -85 1 -91 11 -58 6 20 14 39 18 43 11 11
-14 -79 -29 -100 -21 -31 -15 -43 7 -15 16 20 19 21 13 5 -4 -11 -15 -35 -26
-53 -16 -27 -17 -31 -3 -26 9 3 16 12 16 19 0 8 6 20 13 27 7 7 18 24 25 38
l12 25 -6 -25 c-3 -14 -19 -44 -35 -67 -35 -52 -24 -56 20 -7 71 77 92 198 56
318 -18 59 -100 232 -114 241 -7 4 -8 -1 -4 -12z"/>
<path d="M1395 1381 c16 -52 32 -431 18 -431 -5 0 -9 26 -8 58 1 31 -2 93 -7
137 -5 44 -10 92 -12 108 -1 15 -6 30 -11 35 -6 6 1 -304 10 -388 1 -14 4 -38
5 -55 3 -28 3 -27 10 10 6 34 7 29 9 -34 0 -41 4 -71 8 -68 15 16 31 205 29
352 -3 159 -25 295 -48 295 -5 0 -7 -9 -3 -19z m25 -461 c0 -11 -4 -20 -8 -20
-4 0 -8 9 -8 20 0 11 4 20 8 20 4 0 8 -9 8 -20z"/>
<path d="M1726 1352 c-5 -9 -12 -42 -23 -107 -3 -22 -6 -89 -7 -150 0 -132 20
-205 94 -340 27 -50 50 -87 50 -84 0 8 -26 85 -39 114 -18 43 -31 76 -31 83 0
15 30 -37 55 -98 24 -59 58 -112 42 -68 -3 10 -2 20 3 23 24 15 5 142 -58 390
-11 44 -24 109 -27 145 -11 109 -18 82 -12 -50 4 -94 11 -147 31 -213 33 -110
32 -117 -4 -40 -36 78 -52 156 -49 233 1 33 -1 63 -4 67 -4 3 -7 0 -8 -8 -4
-75 -11 -145 -16 -149 -6 -6 4 191 12 233 5 26 1 35 -9 19z m132 -547 c0 -16
-2 -15 -8 5 -11 34 -11 60 0 35 5 -11 8 -29 8 -40z m10 -56 c-3 -8 -7 -3 -11
10 -4 17 -3 21 5 13 5 -5 8 -16 6 -23z"/>
<path d="M1824 1159 c2 -30 16 -93 30 -140 31 -101 46 -206 41 -274 -7 -78
-14 -147 -20 -177 -3 -16 -2 -28 3 -28 5 0 9 6 10 13 0 6 8 39 16 72 34 132
17 291 -54 500 l-30 90 4 -56z"/>
<path d="M1970 1070 c6 -11 15 -20 21 -20 6 0 6 7 -1 20 -6 11 -15 20 -21 20
-6 0 -6 -7 1 -20z"/>
<path d="M1900 1030 c21 -41 33 -93 34 -147 0 -18 4 -33 8 -33 23 0 -2 148
-34 199 -23 37 -29 23 -8 -19z"/>
<path d="M1654 953 c7 -63 54 -199 81 -233 7 -8 15 -22 19 -30 3 -8 15 -30 26
-47 11 -18 16 -33 12 -33 -4 0 -7 -10 -8 -22 0 -13 -4 -45 -8 -73 -5 -27 -4
-46 0 -42 4 4 9 13 10 20 2 7 9 32 17 57 13 41 15 43 22 21 5 -16 3 -26 -6
-32 -8 -5 -10 -9 -4 -9 5 0 4 -5 -3 -12 -14 -14 -16 -52 -3 -43 5 3 12 19 16
35 4 17 11 30 16 30 21 0 -5 80 -68 210 -78 160 -115 249 -107 261 3 5 0 9 -7
9 -9 0 -10 -18 -5 -67z"/>
<path d="M2040 987 c0 -3 9 -28 19 -55 11 -26 20 -71 22 -98 1 -27 6 -54 11
-60 5 -7 2 -39 -6 -74 -10 -43 -11 -59 -3 -51 33 33 49 221 22 258 -12 16 -13
14 -9 -12 3 -17 -3 -7 -14 23 -17 47 -42 88 -42 69z m70 -137 c0 -5 -2 -10 -4
-10 -3 0 -8 5 -11 10 -3 6 -1 10 4 10 6 0 11 -4 11 -10z"/>
<path d="M1994 941 c13 -36 13 -42 0 -49 -15 -8 -14 -23 9 -152 2 -14 2 -19 0
-12 -7 19 -25 14 -19 -5 3 -10 7 -36 11 -58 3 -22 12 -45 20 -51 8 -6 15 -20
15 -30 1 -47 32 58 37 125 5 66 4 73 -11 68 -12 -5 -16 0 -15 21 1 17 3 20 6
10 2 -10 9 -18 15 -18 5 0 7 7 4 16 -3 9 -9 27 -12 41 -4 14 -15 34 -25 44
-11 11 -19 30 -19 43 0 13 -7 29 -15 36 -13 11 -13 8 -1 -29z m25 -111 c0 -8
-6 -1 -13 15 -7 17 -11 34 -8 40 6 10 20 -27 21 -55z m18 8 c-3 -7 -5 -2 -5
12 0 14 2 19 5 13 2 -7 2 -19 0 -25z"/>
<path d="M1605 818 c18 -85 54 -211 56 -193 3 36 -2 59 -28 143 -26 83 -40
109 -28 50z"/>
<path d="M1187 833 c-4 -3 -7 -11 -7 -17 0 -6 5 -5 12 2 6 6 9 14 7 17 -3 3
-9 2 -12 -2z"/>
<path d="M1516 766 c3 -32 11 -75 19 -95 52 -139 75 -210 76 -236 0 -25 2 -27
8 -10 5 11 7 25 5 30 -2 6 -5 25 -8 42 -4 32 -33 119 -46 138 -4 6 -14 35 -22
65 -37 131 -37 130 -32 66z"/>
<path d="M1565 788 c2 -7 6 -24 9 -38 3 -14 14 -60 25 -102 11 -42 23 -96 26
-120 10 -66 16 -60 14 12 -1 36 -10 90 -21 120 -10 30 -20 60 -21 67 -2 7 -6
16 -10 19 -4 4 -7 15 -7 25 0 10 -4 21 -10 24 -5 3 -8 0 -5 -7z"/>
<path d="M1664 778 c9 -29 18 -207 10 -190 -3 6 -10 12 -15 12 -11 0 -7 -23 5
-32 12 -8 -10 -130 -30 -171 -12 -23 -13 -28 -2 -25 17 6 56 104 69 174 12 65
4 169 -17 219 -16 39 -30 48 -20 13z"/>
<path d="M1490 695 c-1 -5 -3 -23 -6 -40 -5 -36 13 -110 31 -125 16 -14 49 -2
37 14 -5 6 -9 18 -9 26 0 8 -9 35 -20 60 -11 25 -23 52 -26 60 -3 8 -6 11 -7
5z"/>
<path d="M1718 650 c2 -27 8 -47 13 -44 10 6 12 39 3 72 -11 39 -19 24 -16
-28z"/>
<path d="M1940 670 c0 -5 5 -10 11 -10 5 0 7 5 4 10 -3 6 -8 10 -11 10 -2 0
-4 -4 -4 -10z"/>
<path d="M1737 593 c-4 -3 -7 -24 -7 -46 0 -50 6 -45 14 11 5 43 5 47 -7 35z"/>
<path d="M1750 454 c0 -12 9 -32 20 -45 17 -21 19 -21 13 -4 -4 11 -13 31 -20
45 -12 23 -13 24 -13 4z"/>
<path d="M1830 404 c0 -26 35 -72 46 -61 5 4 4 11 -2 15 -6 4 -18 21 -27 37
-14 26 -16 27 -17 9z"/>
<path d="M1333 675 c-1 -16 -3 -37 -5 -45 -5 -17 -26 -67 -34 -84 -3 -6 2 -2
11 9 10 11 23 34 31 52 10 24 19 31 32 27 13 -5 14 -4 3 4 -8 6 -20 23 -26 39
l-12 28 0 -30z"/>
<path d="M1308 670 c-4 -14 -8 -34 -8 -45 1 -19 1 -19 11 -2 6 10 9 30 7 45
l-3 27 -7 -25z"/>
<path d="M1360 671 c0 -6 4 -13 10 -16 6 -3 7 1 4 9 -7 18 -14 21 -14 7z"/>
<path d="M1380 568 c0 -19 2 -20 10 -8 13 19 13 30 0 30 -5 0 -10 -10 -10 -22z"/>
</g>
</svg>
