<?xml version="1.0" standalone="no"?>
<!DOCTYPE svg PUBLIC "-//W3C//DTD SVG 20010904//EN"
 "http://www.w3.org/TR/2001/REC-SVG-20010904/DTD/svg10.dtd">
<svg version="1.0" xmlns="http://www.w3.org/2000/svg"
 width="147.000000pt" height="83.000000pt" viewBox="0 0 147.000000 83.000000"
 preserveAspectRatio="xMidYMid meet">

<g transform="translate(0.000000,83.000000) scale(0.100000,-0.100000)"
fill="#fff" stroke="none">
<path d="M180 680 c0 -22 25 -27 34 -7 3 6 4 -12 2 -40 -3 -52 -3 -53 25 -53
29 0 38 13 19 25 -5 3 -10 20 -10 36 0 26 3 29 20 24 16 -5 20 -2 20 14 0 19
-6 21 -55 21 -48 0 -55 -2 -55 -20z"/>
<path d="M315 640 c0 -59 1 -60 28 -60 27 0 36 13 17 25 -14 9 -3 25 17 25 11
0 14 -6 9 -25 -6 -22 -3 -25 21 -25 27 0 28 1 28 60 0 59 -1 60 -28 60 -24 0
-27 -3 -21 -25 5 -19 2 -25 -9 -25 -20 0 -31 16 -17 25 19 12 10 25 -17 25
-27 0 -28 -1 -28 -60z"/>
<path d="M465 640 l0 -60 48 0 c41 0 48 3 45 18 -3 11 -12 16 -26 15 -12 -2
-22 2 -22 7 0 6 7 10 15 10 8 0 15 5 15 10 0 6 -7 10 -15 10 -8 0 -15 6 -15
14 0 9 7 12 20 9 14 -4 20 0 20 11 0 12 -10 16 -42 16 l-43 0 0 -60z"/>
<path d="M624 685 c-9 -23 3 -44 31 -55 35 -13 31 -23 -6 -15 -26 6 -30 4 -27
-12 4 -22 52 -30 74 -12 22 18 17 38 -16 58 -16 10 -27 20 -24 24 3 3 14 1 25
-6 22 -13 32 -6 23 17 -8 21 -72 22 -80 1z"/>
<path d="M720 680 c0 -22 25 -27 34 -7 3 6 4 -12 2 -40 -3 -52 -2 -53 24 -53
27 0 27 1 22 45 -4 39 -2 45 12 39 12 -4 16 0 16 15 0 19 -6 21 -55 21 -48 0
-55 -2 -55 -20z"/>
<path d="M867 682 c-36 -40 -9 -102 45 -102 49 0 78 69 42 104 -21 22 -67 20
-87 -2z m71 -46 c-2 -15 -10 -21 -28 -21 -31 0 -40 33 -14 52 22 16 46 -1 42
-31z"/>
<path d="M990 691 c0 -6 5 -13 10 -16 6 -3 10 -19 10 -35 0 -16 -4 -32 -10
-35 -20 -12 -9 -25 21 -25 27 0 30 3 24 23 l-6 22 17 -22 c9 -13 25 -23 36
-23 19 0 20 1 4 25 -12 18 -14 30 -7 42 17 32 -5 53 -54 53 -25 0 -45 -4 -45
-9z m70 -26 c0 -8 -4 -15 -10 -15 -5 0 -10 7 -10 15 0 8 5 15 10 15 6 0 10 -7
10 -15z"/>
<path d="M1134 663 c1 -21 -3 -48 -7 -60 -7 -20 -5 -23 18 -23 22 0 26 4 22
19 -2 10 -1 25 4 32 6 10 9 8 9 -8 0 -13 6 -23 13 -23 8 0 19 10 26 23 11 20
11 19 6 -10 -4 -31 -3 -33 25 -33 30 0 40 13 19 26 -7 4 -9 24 -6 50 4 41 3
44 -20 44 -14 0 -26 -7 -29 -17 -15 -46 -17 -48 -27 -15 -7 23 -16 32 -31 32
-19 0 -22 -6 -22 -37z"/>
<path d="M1017 526 c-78 -29 -117 -88 -117 -176 0 -105 77 -180 184 -180 24 0
57 5 75 11 24 8 35 8 47 -1 12 -11 19 -9 39 10 29 27 32 45 10 54 -14 5 -14 9
2 38 22 42 22 124 0 166 -39 72 -154 110 -240 78z m106 -88 c33 -17 46 -39 47
-75 0 -37 -6 -40 -32 -16 -18 16 -20 16 -43 -12 l-23 -30 21 -22 20 -23 -30 0
c-55 0 -93 64 -73 125 19 57 65 79 113 53z"/>
<path d="M180 495 c0 -28 4 -35 20 -35 19 0 20 -7 20 -105 0 -98 -1 -105 -20
-105 -17 0 -20 -7 -20 -41 l0 -41 118 4 c129 4 169 18 190 63 19 40 14 74 -13
101 -23 23 -24 27 -10 47 15 22 20 73 9 102 -13 33 -59 45 -179 45 l-115 0 0
-35z m195 -70 c0 -14 -8 -21 -27 -23 -24 -3 -28 0 -28 23 0 23 4 26 28 23 19
-2 27 -9 27 -23z m15 -124 c7 -15 6 -24 -6 -36 -33 -32 -77 -3 -60 41 8 21 53
17 66 -5z"/>
<path d="M540 495 c0 -28 4 -35 20 -35 19 0 20 -7 20 -104 0 -96 -1 -104 -21
-109 -16 -4 -20 -12 -17 -39 l3 -33 75 -3 c120 -5 179 5 212 38 38 38 39 96 3
130 -22 20 -23 26 -11 39 24 27 27 58 12 95 -20 48 -45 56 -182 56 l-114 0 0
-35z m200 -70 c0 -20 -5 -25 -25 -25 -20 0 -25 5 -25 25 0 20 5 25 25 25 20 0
25 -5 25 -25z m11 -121 c18 -21 0 -48 -35 -52 -24 -3 -26 0 -26 32 0 31 3 36
24 36 13 0 29 -7 37 -16z"/>
</g>
</svg>
