<?xml version="1.0" standalone="no"?>
<!DOCTYPE svg PUBLIC "-//W3C//DTD SVG 20010904//EN"
 "http://www.w3.org/TR/2001/REC-SVG-20010904/DTD/svg10.dtd">
<svg version="1.0" xmlns="http://www.w3.org/2000/svg"
 width="150.000000pt" height="97.000000pt" viewBox="0 0 150.000000 97.000000"
 preserveAspectRatio="xMidYMid meet">

<g transform="translate(0.000000,97.000000) scale(0.100000,-0.100000)"
fill="#000000" stroke="none">
<path d="M662 828 c-20 -20 -14 -48 13 -58 36 -14 32 -33 -5 -25 -18 4 -30 3
-30 -4 0 -17 40 -33 66 -27 34 9 33 52 -1 68 -14 6 -25 15 -25 20 0 5 11 6 25
2 18 -4 25 -2 25 9 0 26 -47 36 -68 15z"/>
<path d="M913 830 c-27 -11 -39 -53 -25 -84 14 -31 57 -41 88 -21 32 21 33 77
2 99 -25 18 -33 19 -65 6z m52 -55 c0 -23 -5 -31 -21 -33 -24 -3 -38 20 -28
50 4 13 13 18 27 16 17 -2 22 -10 22 -33z"/>
<path d="M200 814 c0 -11 6 -14 20 -9 17 5 20 2 20 -27 0 -19 -5 -39 -12 -46
-9 -9 -5 -12 19 -12 30 0 30 0 26 44 -5 42 -4 44 16 39 15 -4 21 -1 21 11 0
13 -11 16 -55 16 -43 0 -55 -3 -55 -16z"/>
<path d="M335 775 c0 -54 0 -55 30 -55 22 0 26 3 17 12 -17 17 -15 28 6 28 26
0 34 -11 21 -27 -9 -10 -5 -13 21 -13 27 0 30 3 21 14 -11 13 -8 67 5 88 3 4
-9 8 -27 8 -26 0 -30 -2 -19 -15 14 -17 6 -34 -15 -31 -23 3 -29 14 -15 31 11
13 8 15 -16 15 -28 0 -29 -1 -29 -55z"/>
<path d="M488 818 c7 -7 12 -26 12 -43 0 -17 -5 -36 -12 -43 -9 -9 0 -12 40
-12 41 0 52 3 52 16 0 12 -6 15 -25 10 -29 -7 -34 8 -7 23 16 9 16 10 0 16
-25 10 -22 25 3 22 12 -1 24 4 26 11 3 8 -10 12 -48 12 -41 0 -50 -3 -41 -12z"/>
<path d="M750 814 c0 -12 6 -15 21 -11 19 5 21 2 17 -39 -3 -39 -1 -44 18 -44
20 0 21 4 16 46 -5 44 -4 46 17 39 15 -5 21 -2 21 9 0 13 -12 16 -55 16 -44 0
-55 -3 -55 -16z"/>
<path d="M1035 775 c0 -50 2 -55 22 -55 16 0 20 5 16 20 -3 11 -1 20 5 20 6 0
14 -9 17 -20 4 -11 15 -20 27 -20 17 0 18 3 8 15 -7 8 -10 25 -6 39 10 42 -2
56 -48 56 l-41 0 0 -55z m65 20 c0 -8 -7 -15 -15 -15 -8 0 -15 7 -15 15 0 8 7
15 15 15 8 0 15 -7 15 -15z"/>
<path d="M1169 817 c6 -8 9 -16 7 -18 -2 -2 -6 -21 -9 -41 -5 -34 -4 -38 17
-38 19 0 22 5 19 38 -2 36 -2 37 9 10 12 -29 38 -38 38 -14 0 8 5 18 11 22 8
5 10 -3 7 -25 -4 -27 -2 -31 19 -31 24 0 25 12 7 69 -2 7 1 20 7 27 9 11 6 14
-15 14 -20 0 -29 -8 -40 -32 l-14 -33 -7 33 c-6 27 -12 32 -37 32 -24 0 -28
-3 -19 -13z"/>
<path d="M1058 660 c-127 -38 -170 -199 -79 -301 49 -55 117 -74 194 -54 44
11 54 11 68 -1 13 -12 19 -10 45 17 28 30 29 31 9 45 -18 14 -18 15 -2 43 37
64 15 172 -46 222 -41 33 -130 47 -189 29z m105 -91 c29 -13 47 -48 47 -89 0
-35 -6 -37 -35 -10 l-21 20 -24 -32 -23 -31 22 -19 c21 -16 21 -18 5 -25 -26
-10 -67 17 -86 57 -14 29 -16 43 -7 73 16 59 66 82 122 56z"/>
<path d="M200 625 c0 -28 4 -35 20 -35 19 0 20 -7 20 -110 0 -103 -1 -110 -20
-110 -16 0 -20 -7 -20 -35 l0 -35 110 0 c121 0 166 12 194 51 24 35 20 85 -9
115 -23 23 -24 27 -10 47 25 35 19 94 -11 122 -26 24 -33 25 -150 25 l-124 0
0 -35z m191 -45 c5 0 9 -11 9 -25 0 -21 -5 -25 -30 -25 -25 0 -30 4 -30 23 0
29 9 39 28 32 7 -3 18 -5 23 -5z m19 -145 c6 -8 9 -23 5 -35 -5 -15 -15 -20
-41 -20 -31 0 -34 3 -34 28 0 16 3 32 7 35 12 12 50 7 63 -8z"/>
<path d="M570 625 c0 -28 4 -35 20 -35 19 0 20 -7 20 -106 0 -97 -2 -106 -20
-111 -15 -4 -20 -14 -20 -39 l0 -34 110 0 c121 0 166 12 194 51 24 35 20 85
-9 115 -23 23 -24 27 -10 47 25 35 19 94 -11 122 -26 24 -33 25 -150 25 l-124
0 0 -35z m191 -45 c5 0 9 -11 9 -25 0 -21 -5 -25 -30 -25 -25 0 -30 4 -30 23
0 29 9 39 28 32 7 -3 18 -5 23 -5z m20 -146 c19 -23 -1 -48 -40 -52 -30 -3
-31 -2 -31 32 0 33 2 36 29 36 16 0 34 -7 42 -16z"/>
</g>
</svg>
